<?xml version="1.0" standalone="no"?>
<!DOCTYPE svg PUBLIC "-//W3C//DTD SVG 20010904//EN"
 "http://www.w3.org/TR/2001/REC-SVG-20010904/DTD/svg10.dtd">
<svg version="1.0" xmlns="http://www.w3.org/2000/svg"
 width="260.000000pt" height="260.000000pt" viewBox="0 0 260.000000 260.000000"
 preserveAspectRatio="xMidYMid meet">
<metadata>
Created by potrace 1.11, written by Peter Selinger 2001-2013
</metadata>
<g transform="translate(0.000000,260.000000) scale(0.100000,-0.100000)"
fill="#000000" stroke="none">
<path d="M1169 2596 c-2 -2 -27 -6 -56 -10 -28 -3 -57 -8 -65 -10 -7 -3 -26
-7 -43 -9 -16 -3 -72 -19 -124 -36 -378 -127 -682 -430 -809 -806 -55 -162
-67 -238 -67 -425 0 -139 9 -221 32 -310 3 -14 7 -29 8 -35 9 -36 52 -151 80
-211 116 -252 363 -498 622 -619 72 -34 237 -89 298 -100 117 -20 295 -25 416
-12 81 8 231 47 317 81 342 135 627 434 747 780 15 44 29 89 31 100 37 169 48
338 31 486 -53 478 -398 905 -859 1066 -66 24 -169 50 -233 61 -37 6 -321 14
-326 9z"/>
</g>
</svg>
