<?xml version="1.0" encoding="UTF-8" standalone="no"?><!DOCTYPE svg PUBLIC "-//W3C//DTD SVG 1.1//EN" "http://www.w3.org/Graphics/SVG/1.1/DTD/svg11.dtd"><svg width="100%" height="100%" viewBox="0 0 3747 1167" version="1.1" xmlns="http://www.w3.org/2000/svg" xmlns:xlink="http://www.w3.org/1999/xlink" xml:space="preserve" xmlns:serif="http://www.serif.com/" style="fill-rule:evenodd;clip-rule:evenodd;stroke-linejoin:round;stroke-miterlimit:1.41421;"><rect id="アートボード1" x="-118" y="-227" width="7731" height="1600" style="fill:none;"/><g id="logo"><path d="M969.297,765.575l-109.731,27.521c-64.17,90.124 -169.503,148.904 -288.566,148.904c-44.985,0 -88.001,-8.41 -127.587,-23.712l59.068,-60.9c21.923,5.579 44.859,8.612 68.519,8.612c127.018,0 234.062,-85.218 267.275,-201.575l150.374,49.067c-5.365,17.869 -11.84,35.259 -19.352,52.083m114.552,-143.514c0.737,-11.262 1.151,-22.612 1.151,-34.061c0,-34.642 -3.45,-68.475 -9.984,-101.196l-72.283,40.2c2.791,19.936 4.267,40.292 4.267,60.996c0,9.2 -0.319,18.324 -0.881,27.382l-157.469,-13.529c0.225,-4.59 0.35,-9.206 0.35,-13.853c0,-62.917 -20.926,-120.933 -56.164,-167.522l-7.153,5.46c17.338,22.931 30.976,48.774 40.293,76.598l-7.978,4.268c8.397,25.555 13.002,52.831 13.002,81.196c0,4.129 -0.12,8.229 -0.311,12.31l-129.718,-11.144c-0.089,10.079 -1.334,19.877 -3.593,29.284l123.773,40.388c-30.852,109.15 -131.124,189.162 -250.151,189.162c-18.495,0 -36.517,-1.981 -53.911,-5.673l77.911,-80.327l-184,-22l-14,-174l-154.045,155.23c-16.72,-41.128 -25.955,-86.097 -25.955,-133.23c0,-115.423 55.252,-217.931 140.737,-282.554l10.136,-39.804c58.8,-37.13 128.446,-58.642 203.127,-58.642c8.916,0 17.754,0.333 26.516,0.936c0.053,-0.005 0.104,-0.012 0.156,-0.017l0.015,0.026l0.001,0l27.026,45.334c41.418,6.596 80.296,20.731 115.276,40.892l15.165,-14.325c-36.529,-21.878 -77.235,-37.5 -120.684,-45.252l-27.402,-45.961c-11.884,-1.06 -23.909,-1.633 -36.069,-1.633c-71.271,0 -138.157,18.658 -196.155,51.262l11.538,-45.311c56.063,-26.255 118.618,-40.951 184.617,-40.951c13.396,0 26.641,0.638 39.73,1.821l40.195,-73.625c-26.047,-4.067 -52.737,-6.196 -79.925,-6.196c-283.874,0 -514,230.126 -514,514c0,97.314 27.051,188.307 74.033,265.883l-53.366,231.451l236.168,-52.212c75.642,43.796 163.472,68.878 257.165,68.878c231.8,0 427.734,-153.451 491.829,-364.302l36.145,11.794c12.122,-39.679 19.878,-81.257 22.744,-124.178l-37.869,-3.253Z" style="fill:#005bac;fill-rule:nonzero;"/><path d="M3555,679l-496,0l0,-268l318.638,0l177.362,141.288l0,126.712Zm-708,212l-290.886,0l-129.114,-124.857l0,-35.143l420,0l0,160Zm160,-532l0,320l-108,0l0,-108l-980,0l0,-110l-52,0l0,430l-580,0l0,-268l474,0l0,-52l-474,0l0,-110l-52,0l0,482l684,0l0,-165.028l160.99,-154.972l767.01,0l0,56l-472,0l0,264l524,0l0,-212l108,0l0,212l52,0l0,-212l548,0l0,-372l-600,0Z" style="fill:#005bac;fill-rule:nonzero;"/></g></svg>