<?xml version="1.0" encoding="UTF-8" standalone="no"?><!DOCTYPE svg PUBLIC "-//W3C//DTD SVG 1.1//EN" "http://www.w3.org/Graphics/SVG/1.1/DTD/svg11.dtd"><svg width="100%" height="100%" viewBox="0 0 25 25" version="1.1" xmlns="http://www.w3.org/2000/svg" xmlns:xlink="http://www.w3.org/1999/xlink" xml:space="preserve" xmlns:serif="http://www.serif.com/" style="fill-rule:evenodd;clip-rule:evenodd;stroke-linejoin:round;stroke-miterlimit:1.41421;"><path d="M22.903,0.175l-21.352,0c-0.731,0 -1.324,0.593 -1.324,1.324l0,21.352c0,0.732 0.593,1.324 1.324,1.324l11.494,0l0,-9.294l-3.129,0l0,-3.621l3.129,0l0,-2.675c0,-3.099 1.894,-4.785 4.659,-4.785c1.325,0 2.464,0.097 2.796,0.141l0,3.24l-1.921,0c-1.5,0 -1.792,0.721 -1.792,1.771l0,2.311l3.584,0l-0.465,3.63l-3.119,0l0,9.282l6.115,0c0.733,0 1.325,-0.592 1.325,-1.324l0,-21.352c0,-0.731 -0.592,-1.324 -1.324,-1.324" style="fill:#666;fill-rule:nonzero;"/></svg>