<?xml version="1.0" encoding="UTF-8" standalone="no"?><!DOCTYPE svg PUBLIC "-//W3C//DTD SVG 1.1//EN" "http://www.w3.org/Graphics/SVG/1.1/DTD/svg11.dtd"><svg width="100%" height="100%" viewBox="0 0 57 57" version="1.1" xmlns="http://www.w3.org/2000/svg" xmlns:xlink="http://www.w3.org/1999/xlink" xml:space="preserve" xmlns:serif="http://www.serif.com/" style="fill-rule:evenodd;clip-rule:evenodd;stroke-linejoin:round;stroke-miterlimit:1.41421;"><path d="M28.095,0.911c-15.18,0 -27.475,12.302 -27.475,27.476c0,12.141 7.871,22.438 18.786,26.067c1.374,0.258 1.877,-0.591 1.877,-1.321c0,-0.653 -0.022,-2.382 -0.034,-4.671c-7.643,1.657 -9.254,-3.686 -9.254,-3.686c-1.251,-3.172 -3.057,-4.019 -3.057,-4.019c-2.489,-1.703 0.192,-1.669 0.192,-1.669c2.759,0.193 4.209,2.83 4.209,2.83c2.449,4.202 6.431,2.988 8.002,2.285c0.247,-1.777 0.954,-2.988 1.74,-3.675c-6.102,-0.687 -12.515,-3.049 -12.515,-13.577c0,-2.999 1.065,-5.449 2.827,-7.372c-0.309,-0.694 -1.236,-3.487 0.241,-7.272c0,0 2.301,-0.737 7.556,2.816c2.198,-0.611 4.533,-0.914 6.868,-0.927c2.336,0.013 4.671,0.316 6.869,0.927c5.22,-3.553 7.521,-2.816 7.521,-2.816c1.477,3.785 0.55,6.578 0.275,7.272c1.752,1.923 2.816,4.373 2.816,7.372c0,10.555 -6.422,12.879 -12.535,13.554c0.962,0.825 1.854,2.51 1.854,5.083c0,3.677 -0.034,6.631 -0.034,7.524c0,0.721 0.481,1.58 1.889,1.305c10.992,-3.604 18.857,-13.907 18.857,-26.03c0,-15.174 -12.302,-27.476 -27.475,-27.476" style="fill:#666;fill-rule:nonzero;"/></svg>