<?xml version="1.0" encoding="UTF-8" standalone="no"?><!DOCTYPE svg PUBLIC "-//W3C//DTD SVG 1.1//EN" "http://www.w3.org/Graphics/SVG/1.1/DTD/svg11.dtd"><svg width="100%" height="100%" viewBox="0 0 27 27" version="1.1" xmlns="http://www.w3.org/2000/svg" xmlns:xlink="http://www.w3.org/1999/xlink" xml:space="preserve" xmlns:serif="http://www.serif.com/" style="fill-rule:evenodd;clip-rule:evenodd;stroke-linejoin:round;stroke-miterlimit:1.41421;"><rect x="-7.284" y="-7.495" width="40.87" height="40.87" style="fill:none;"/><path d="M8.412,23.32c9.639,0 14.912,-7.986 14.912,-14.912c0,-0.227 0,-0.453 -0.016,-0.677c1.026,-0.742 1.911,-1.661 2.615,-2.713c-0.957,0.424 -1.971,0.702 -3.01,0.824c1.094,-0.654 1.913,-1.685 2.304,-2.898c-1.029,0.61 -2.154,1.04 -3.328,1.272c-0.991,-1.054 -2.375,-1.652 -3.821,-1.652c-2.878,0 -5.246,2.368 -5.246,5.246c0,0.399 0.046,0.797 0.136,1.186c-4.212,-0.212 -8.141,-2.204 -10.801,-5.476c-1.383,2.381 -0.667,5.467 1.623,6.996c-0.834,-0.025 -1.65,-0.25 -2.379,-0.656c0,0.021 0,0.044 0,0.066c0.001,2.486 1.768,4.646 4.204,5.138c-0.771,0.21 -1.581,0.241 -2.366,0.09c0.685,2.129 2.66,3.597 4.896,3.639c-1.855,1.458 -4.148,2.25 -6.508,2.248c-0.417,-0.001 -0.834,-0.026 -1.248,-0.076c2.397,1.538 5.186,2.354 8.033,2.35" style="fill:#666;fill-rule:nonzero;"/></svg>